<svg xmlns="http://www.w3.org/2000/svg" width="64" height="64" viewBox="0 0 64 64" fill="none">
    <g>
        <path d="M0 0H64V64H0V0Z" fill="#44475A"/>
        <path d="M0 0H64V64H0V0Z" fill="#44475A"/>
        <g clip-path="url(#clip1_848_348)">
            <path d="M46.625 14C48.489 14 50 15.511 50 17.375V37.625C50 39.489 48.489 41 46.625 41H26.375C24.511 41 23 39.489 23 37.625V17.375C23 15.511 24.511 14 26.375 14H46.625ZM26.375 43.25C23.2734 43.25 20.75 40.7266 20.75 37.625V23H17.375C15.511 23 14 24.511 14 26.375V46.625C14 48.489 15.511 50 17.375 50H37.625C39.489 50 41 48.489 41 46.625V43.25H26.375Z" fill="#F8F8F2"/>
            <path d="M46.625 14C48.489 14 50 15.511 50 17.375V37.625C50 39.489 48.489 41 46.625 41H26.375C24.511 41 23 39.489 23 37.625V17.375C23 15.511 24.511 14 26.375 14H46.625Z" fill="#6272A4"/>
        </g>
    </g>
</svg>
